# xmcd
#
# Track frame offsets: 
#        150
#        11325
#        22087
#        33742
#        45857
#        59432
#        69620
#        81915
#        93050
#        107442
#        117107
#        128380
#        137745
#        148130
#        157422
#        166367
#        176312
#        185527
#        196290
#        208450
#        216785
#        236845
#        247140
#        266947
#        278465
#        291220
#        301200
#
# Disc length: 4154 seconds
#
# Revision: 5
# Processed by: cddbd v1.5.2PL0 Copyright (c) Steve Scherf et al.
# Submitted via: ExactAudioCopyFreeDBPlugin 1.0
#
DISCID=8f10381b
DTITLE=Burl Ives - Nashville Years - Disc 2
DYEAR=1900
DGENRE=Country
TTITLE0=Brooklyn Bridge
TTITLE1=Poor Little Jimmie
TTITLE2=Thumbin' Johnny Brown
TTITLE3=Funny Way Of Laughin'
TTITLE4=That's All I Can Remember
TTITLE5=Ninety Nine
TTITLE6=Call Me Mr. In-Between
TTITLE7=I Ain't Comin' Home Tonight
TTITLE8=How Do You Fall Out Of Love
TTITLE9=In Foggy Old London
TTITLE10=Mother Wouldn't Do That
TTITLE11=Bring Them In
TTITLE12=Let The Lower Lights Be Burning
TTITLE13=Beulah Land
TTITLE14=Standing On The Promises
TTITLE15=Fairest Lord Jesus
TTITLE16=We're Marching To Zion
TTITLE17=Sunshine In My Soul
TTITLE18=Blessed Assurance
TTITLE19=Leaning On The Everlasting Arms
TTITLE20=Where He Leads Me
TTITLE21=Will There Be Any Stars
TTITLE22=When They Ring Those Golden Bells
TTITLE23=The Same Old Hurt
TTITLE24=Wishin' She Was Here (Instead Of Me)
TTITLE25=Busted
TTITLE26=Poor Boy In A Rich Man's Town
EXTD=
EXTT0=
EXTT1=
EXTT2=
EXTT3=
EXTT4=
EXTT5=
EXTT6=
EXTT7=
EXTT8=
EXTT9=
EXTT10=
EXTT11=
EXTT12=
EXTT13=
EXTT14=
EXTT15=
EXTT16=
EXTT17=
EXTT18=
EXTT19=
EXTT20=
EXTT21=
EXTT22=
EXTT23=
EXTT24=
EXTT25=
EXTT26=
PLAYORDER=
